<svg width="34" height="36" viewBox="0 0 34 36" fill="none" xmlns="http://www.w3.org/2000/svg">
    <defs>
        <radialGradient id="paint0_radial_441_377" cx="0" cy="0" r="1" gradientUnits="userSpaceOnUse"
            gradientTransform="translate(17.0044 18) rotate(90) scale(18 16.866)">
            <stop stop-color="#FEAB58" />
            <stop offset="1" stop-color="#FE8179" />
        </radialGradient>
    </defs>
    <path
        d="M33.58 10.74L31.58 7.28C31.3123 6.82116 30.8747 6.48622 30.3618 6.34771C29.849 6.20921 29.3023 6.27829 28.84 6.54L21 11.08V2C21 0.9 20.1 0 19 0H15C13.9 0 13 0.9 13 2V11.08L5.13999 6.54C4.91423 6.4082 4.66468 6.32227 4.40565 6.28714C4.14661 6.252 3.88319 6.26834 3.63049 6.33523C3.37778 6.40213 3.14077 6.51825 2.93305 6.67694C2.72532 6.83563 2.55097 7.03378 2.41998 7.26L0.419984 10.72C-0.140016 11.68 0.179985 12.92 1.13998 13.46L8.99999 18L1.13998 22.54C0.179985 23.1 -0.140016 24.32 0.399984 25.28L2.39998 28.74C2.95998 29.7 4.17999 30.02 5.13999 29.48L13 24.92V34C13 35.1 13.9 36 15 36H19C20.1 36 21 35.1 21 34V24.92L28.86 29.46C29.82 30.02 31.04 29.68 31.6 28.72L33.6 25.26C34.16 24.3 33.82 23.08 32.86 22.52L25 18L32.86 13.46C33.82 12.92 34.14 11.68 33.58 10.74Z"
        fill="url(#paint0_radial_441_377)" />

</svg>